<?xml version="1.0" ?><svg fill="white" data-name="Layer 2" id="a30d2756-3909-49d3-a982-f5356d3b5e5e" viewBox="0 0 38 38" xmlns="http://www.w3.org/2000/svg"><path d="M19,37.44A18.44,18.44,0,1,1,37.44,19,18.461,18.461,0,0,1,19,37.44ZM19,3.06A15.94,15.94,0,1,0,34.94,19,15.957,15.957,0,0,0,19,3.06Z"/><circle cx="19" cy="11.242" r="1.878"/><path d="M20.834,26.579a1.983,1.983,0,0,1-1.034-.822l.871-7.631c0-.018,0-.036,0-.054s.008-.029.01-.045a2.039,2.039,0,0,0-1.345-2.157,2.258,2.258,0,0,0-.451-.1,2.03,2.03,0,0,0-2.034,1.066,1.627,1.627,0,0,1,.313.076,2.034,2.034,0,0,1,1.034.821l-.883,7.731a2.036,2.036,0,0,0,1.335,2.155c.009.011.01,0,.01,0a2.258,2.258,0,0,0,.451.1,2.03,2.03,0,0,0,2.034-1.066A1.627,1.627,0,0,1,20.834,26.579Z"/></svg>